<?xml version="1.0" encoding="iso-8859-1"?>
<!-- Uploaded to: SVG Repo, www.svgrepo.com, Generator: SVG Repo Mixer Tools -->
<!DOCTYPE svg PUBLIC "-//W3C//DTD SVG 1.1//EN" "http://www.w3.org/Graphics/SVG/1.1/DTD/svg11.dtd">
<svg height="800px" width="800px" version="1.1" id="Capa_1" xmlns="http://www.w3.org/2000/svg" xmlns:xlink="http://www.w3.org/1999/xlink" 
	 viewBox="0 0 297.666 297.666" xml:space="preserve">

	  <linearGradient id="snowflakeGradient" x1="0%" y1="0%" x2="100%" y2="100%">
  <stop offset="0%" style="stop-color: #d3d3d3; stop-opacity: 1" />
  <stop offset="50%" style="stop-color: #ffffff; stop-opacity: 1" />
  <stop offset="100%" style="stop-color: #d3d3d3; stop-opacity: 1" />
</linearGradient>
	 
<g>
	<g>
		<path fill="url(#snowflakeGradient)" d="M268.441,147.832l27.029-27.029c2.929-2.93,2.929-7.678,0-10.607c-2.93-2.928-7.678-2.928-10.607,0l-30.304,30.304
			h-43.822l16.358-16.98c2.066-2.145,2.668-5.309,1.532-8.063c-1.136-2.753-3.792-4.574-6.771-4.639l-24.629-0.537l30.781-30.781
			h42.49c4.143,0,7.5-3.357,7.5-7.5c0-4.143-3.357-7.5-7.5-7.5h-38.333v-38c0-4.143-3.357-7.5-7.5-7.5c-4.143,0-7.5,3.357-7.5,7.5
			v42.295l-30.471,30.637l-0.366-24.171c-0.056-2.978-1.827-5.641-4.577-6.785c-2.753-1.144-6.064-0.552-8.213,1.507l-17.373,16.493
			V42.44l29.803-29.637c2.929-2.93,3.012-7.678,0.083-10.607c-2.93-2.928-7.636-2.928-10.566,0l-27.008,27.029L121.46,2.196
			c-2.93-2.928-7.672-2.928-10.602,0c-2.929,2.93-3.093,7.678-0.164,10.607l30.473,30.637v43.785l-17.815-17.323
			c-2.144-2.065-5.223-2.667-7.979-1.532c-2.753,1.136-4.533,3.793-4.597,6.771l-0.67,24.032L78.166,67.38V25.499
			c0-4.143-3.357-7.5-7.5-7.5c-4.143,0-7.5,3.357-7.5,7.5v39H25.499c-4.143,0-7.5,3.357-7.5,7.5c0,4.143,3.357,7.5,7.5,7.5h43.904
			l30.626,30.626l-24.769,0.461c-2.978,0.056-5.641,1.868-6.785,4.618c-1.144,2.75-0.553,5.916,1.507,8.067l17.45,18.227H43.441
			l-30.637-30.637c-2.93-2.928-7.678-2.928-10.607,0c-2.929,2.93-2.929,7.678,0,10.607l27.029,27.029L2.197,175.528
			c-2.929,2.93-2.929,7.678,0,10.607c1.465,1.464,3.385,2.196,5.304,2.196c1.919,0,3.839-0.732,5.304-2.196l29.637-29.637h43.82
			L69.904,173.48c-2.066,2.145-2.668,5.31-1.532,8.063c1.136,2.753,3.793,4.574,6.771,4.639l23.052,0.503l-31.814,31.814h-41.88
			c-4.143,0-7.5,3.357-7.5,7.5c0,4.143,3.357,7.5,7.5,7.5h38.667v38c0,4.143,3.357,7.5,7.5,7.5c4.143,0,7.5-3.357,7.5-7.5v-43.905
			l31.774-31.607l0.563,25.752c0.056,2.977,1.91,5.641,4.66,6.785c2.751,1.143,5.77,0.551,7.922-1.507l17.082-16.493v44.035
			l-30.137,30.304c-2.929,2.93-2.845,7.678,0.083,10.607c1.465,1.464,3.426,2.196,5.345,2.196c1.919,0,3.86-0.732,5.325-2.196
			l27.04-27.029l27.035,27.029c1.465,1.464,3.387,2.196,5.306,2.196c1.919,0,3.84-0.732,5.305-2.196
			c2.929-2.93,2.763-7.678-0.166-10.607l-30.136-29.97v-45.12l18.148,17.323c1.425,1.373,3.382,2.099,5.288,2.099
			c0.962,0,1.975-0.186,2.899-0.566c2.753-1.136,4.595-3.793,4.66-6.771l0.359-23.65l30.646,30.802v42.49c0,4.143,3.357,7.5,7.5,7.5
			c4.143,0,7.5-3.357,7.5-7.5v-38h38.333c4.143,0,7.5-3.357,7.5-7.5c0-4.143-3.357-7.5-7.5-7.5h-42.295l-31.619-31.619l25.154-0.468
			c2.978-0.056,5.641-1.868,6.785-4.618c1.144-2.75,0.553-5.916-1.508-8.067l-17.451-18.228h45.327l29.97,29.97
			c1.465,1.464,3.385,2.196,5.304,2.196c1.919,0,3.839-0.732,5.304-2.196c2.929-2.93,2.929-7.678,0-10.607L268.441,147.832z
			 M156.166,107.241l15.401-14.585l0.484,21.503l-14.133,14.008c-0.531-0.252-0.752-0.482-1.752-0.693V107.241z M125.273,92.582
			l15.893,15.472v19.066c0,0.263-1.416,0.57-2.175,0.918l-14.181-14.182L125.273,92.582z M114.758,124.853l13.611,13.611
			c-0.487,0.974-0.905,1.987-1.249,3.034h-18.922l-15.542-16.234L114.758,124.853z M112.877,172.001l-20.295-0.442l14.507-15.06
			h20.385c0.083,0.218,0.167,0.435,0.257,0.648L112.877,172.001z M140.166,189.757l-15.068,14.585l-0.346-23.084l12.843-12.968
			c0.866,0.469,1.571,0.88,2.571,1.234V189.757z M171.392,204.416l-16.226-15.472v-19.066c1-0.231,1.565-0.498,2.24-0.796
			l14.441,14.441L171.392,204.416z M181.857,172.151l-13.36-13.36c0.544-1.052,1.008-2.151,1.382-3.292H188.8l15.542,16.234
			L181.857,172.151z M189.908,140.499h-20.384c-0.229-0.599-0.478-1.188-0.755-1.761l13.775-13.775l21.87,0.478L189.908,140.499z"/>
	</g>
</g>
</svg>